<?xml version="1.0" encoding="utf-8"?>
<svg viewBox="0 0 500 500" xmlns="http://www.w3.org/2000/svg" xmlns:bx="https://boxy-svg.com">
  <defs>
    <bx:grid x="0" y="0" width="90.874" height="98.324"/>
  </defs>
  <g transform="matrix(0.751136, 0, 0, 0.763549, 114.525703, 111.985786)">
    <path d="M 661.918 332.207 m -197.64 0 a 197.64 197.64 0 1 0 395.28 0 a 197.64 197.64 0 1 0 -395.28 0 Z M 661.918 332.207 m -183.458 0 a 183.458 183.458 0 0 1 366.916 0 a 183.458 183.458 0 0 1 -366.916 0 Z" style="fill: rgba(30, 174, 126, 0.53);" transform="matrix(-0.370289, -0.928917, 0.928917, -0.370289, 253.155681, 1036.296822)" bx:shape="ring 661.918 332.207 183.458 183.458 197.64 197.64 1@604c766f"/>
    <path style="fill: rgba(30, 66, 196, 0.63);" transform="matrix(-0.560119, 0.058436, -0.058583, -0.56153, 608.424072, 273.533478)" d="M 521.551 54.302 L 554.941 54.302 L 561.988 105.301 A 88.701 88.701 0 0 1 581.891 113.545 L 622.935 82.466 L 646.545 106.077 L 615.467 147.121 A 88.701 88.701 0 0 1 623.711 167.024 L 674.709 174.07 L 674.709 207.461 L 623.711 214.507 A 88.701 88.701 0 0 1 615.467 234.41 L 646.545 275.454 L 622.935 299.065 L 581.891 267.986 A 88.701 88.701 0 0 1 561.988 276.23 L 554.941 327.229 L 521.551 327.229 L 514.504 276.23 A 88.701 88.701 0 0 1 494.601 267.986 L 453.557 299.065 L 429.947 275.454 L 461.026 234.41 A 88.701 88.701 0 0 1 452.781 214.507 L 401.783 207.461 L 401.783 174.07 L 452.781 167.024 A 88.701 88.701 0 0 1 461.026 147.121 L 429.947 106.077 L 453.557 82.466 L 494.601 113.545 A 88.701 88.701 0 0 1 514.504 105.301 Z M 538.246 149.827 A 40.939 40.939 0 0 0 538.246 231.705 A 40.939 40.939 0 0 0 538.246 149.827" bx:shape="cog 538.246 190.766 40.939 88.701 136.463 0.38 8 1@7922c932"/>
    <path style="fill: rgba(244, 24, 24, 0.71);" transform="matrix(-0.453471, 0.254664, -0.290222, -0.505285, 794.610352, 348.994263)" d="M 573.157 251.521 L 612.343 251.521 L 620.612 311.371 A 104.096 104.096 0 0 1 643.97 321.045 L 692.137 284.573 L 719.845 312.281 L 683.372 360.448 A 104.096 104.096 0 0 1 693.047 383.806 L 752.897 392.075 L 752.897 431.261 L 693.047 439.53 A 104.096 104.096 0 0 1 683.372 462.888 L 719.845 511.055 L 692.137 538.763 L 643.97 502.29 A 104.096 104.096 0 0 1 620.612 511.965 L 612.343 571.815 L 573.157 571.815 L 564.888 511.965 A 104.096 104.096 0 0 1 541.53 502.29 L 493.363 538.763 L 465.655 511.055 L 502.128 462.888 A 104.096 104.096 0 0 1 492.453 439.53 L 432.603 431.261 L 432.603 392.075 L 492.453 383.806 A 104.096 104.096 0 0 1 502.128 360.448 L 465.655 312.281 L 493.363 284.573 L 541.53 321.045 A 104.096 104.096 0 0 1 564.888 311.371 Z M 592.75 363.624 A 48.044 48.044 0 0 0 592.75 459.712 A 48.044 48.044 0 0 0 592.75 363.624" bx:shape="cog 592.75 411.668 48.044 104.096 160.147 0.38 8 1@48f4bfae"/>
    <path style="fill: rgba(23, 199, 46, 0.7);" transform="matrix(-0.487648, 0.309391, -0.299122, -0.471463, 504.372559, 409.948517)" d="M 287.433 159.805 L 329.348 159.805 L 338.193 223.823 A 111.345 111.345 0 0 1 363.177 234.172 L 414.699 195.159 L 444.337 224.797 L 405.325 276.319 A 111.345 111.345 0 0 1 415.673 301.303 L 479.691 310.148 L 479.691 352.063 L 415.673 360.908 A 111.345 111.345 0 0 1 405.325 385.892 L 444.337 437.414 L 414.699 467.052 L 363.177 428.039 A 111.345 111.345 0 0 1 338.193 438.388 L 329.348 502.406 L 287.433 502.406 L 278.588 438.388 A 111.345 111.345 0 0 1 253.604 428.039 L 202.082 467.052 L 172.444 437.414 L 211.457 385.892 A 111.345 111.345 0 0 1 201.108 360.908 L 137.09 352.063 L 137.09 310.148 L 201.108 301.303 A 111.345 111.345 0 0 1 211.457 276.319 L 172.444 224.797 L 202.082 195.159 L 253.604 234.172 A 111.345 111.345 0 0 1 278.588 223.823 Z M 308.391 279.715 A 51.39 51.39 0 0 0 308.391 382.496 A 51.39 51.39 0 0 0 308.391 279.715" bx:shape="cog 308.391 331.105 51.39 111.345 171.301 0.38 8 1@9da9b934"/>
  </g>
</svg>