<?xml version="1.0" encoding="utf-8"?>
<svg viewBox="0 0 500 500" xmlns="http://www.w3.org/2000/svg">
  <path style="stroke: rgba(0, 0, 0, 0); fill: rgb(194, 10, 10);" d="M 91.537 70.521 L 405.435 70.922 L 391.887 385.532 L 246.649 451.73 L 104.315 383.032 L 91.537 70.521 Z"/>
  <path style="stroke: rgba(0, 0, 0, 0); fill: rgb(228, 26, 26);" d="M 250.1 88.372 L 386.776 87.562 L 374.824 373.399 L 253.484 423.966 L 250.1 88.372 Z"/>
  <g>
    <path style="stroke: rgba(0, 0, 0, 0); fill: rgb(243, 238, 238);" d="M 127.097 113.599 L 372.026 113.189 L 366.933 155.51 L 130.288 152.488 L 127.097 113.599 Z"/>
    <path style="stroke: rgba(0, 0, 0, 0); fill: rgb(243, 238, 238);" d="M 134.971 212.274 C 158.625 202.719 358.432 202.405 358.571 203.957 L 348.58 335.063 L 253.738 376.799 L 142.841 344.92 L 140.249 283.327 L 182.779 282.244 C 182.779 282.244 183.082 324.614 184.656 322.856 C 186.23 321.098 251.29 335.559 251.29 335.559 L 316.87 314.838 L 321.272 249.696 L 135.494 251.069 C 135.494 251.069 134.099 213.851 134.971 212.274 Z"/>
    <path style="stroke: rgba(0, 0, 0, 0); fill: rgb(243, 238, 238);" d="M 128.083 118.316 L 268.491 152.946 L 179.33 154.289 L 178.816 218.316 L 134.888 241.922 L 128.083 118.316 Z"/>
    <g>
      <path style="stroke: rgba(0, 0, 0, 0); fill: rgb(249, 247, 247);" d="M 249.623 114.099 L 371.172 113.926 L 366.548 155.047 L 251.222 153.863 L 249.623 114.099 Z"/>
      <path style="stroke: rgba(0, 0, 0, 0); fill: rgb(249, 247, 247);" d="M 251.268 206.801 L 250.777 249.404 L 321.684 250.087 L 317.62 312.224 L 254.104 336.165 L 253.925 376.875 C 253.925 376.875 347.592 335.574 347.749 335.414 C 347.906 335.254 355.663 205.197 355.82 205.197 C 355.977 205.197 252.569 205.912 251.268 206.801 Z"/>
    </g>
  </g>
</svg>