<?xml version="1.0" encoding="utf-8"?>
<svg viewBox="0 0 500 500" xmlns="http://www.w3.org/2000/svg">
  <path style="stroke: rgba(0, 0, 0, 0); fill: rgb(14, 51, 163);" d="M 91.537 70.521 L 405.435 70.922 L 391.887 385.532 L 246.649 451.73 L 104.315 383.032 L 91.537 70.521 Z"/>
  <path style="stroke: rgba(0, 0, 0, 0); fill: rgb(95, 144, 217);" d="M 250.1 88.372 L 386.776 87.562 L 374.824 373.399 L 253.484 423.966 L 250.1 88.372 Z"/>
  <g>
    <path style="stroke: rgba(0, 0, 0, 0); fill: rgb(243, 238, 238);" d="M 127.097 113.599 L 372.026 113.189 L 371.535 154.096 L 130.288 152.488 L 127.097 113.599 Z"/>
    <path style="stroke: rgba(0, 0, 0, 0); fill: rgb(243, 238, 238);" d="M 131.46 218.395 L 360.207 215.066 L 355.58 331.197 L 253.738 376.799 L 142.841 344.92 L 139.631 292.917 L 182.207 292.597 C 182.207 292.597 183.082 324.614 184.656 322.856 C 186.23 321.098 251.29 335.559 251.29 335.559 L 322.751 310.704 L 321.082 254.529 L 133.509 262.514 C 133.509 262.514 130.588 219.972 131.46 218.395 Z"/>
    <path style="stroke: rgba(0, 0, 0, 0); fill: rgb(243, 238, 238);" d="M 268.478 150.95 L 268.491 152.946 L 370.17 152.539 L 250.212 218.292 L 132.366 219.815 L 268.478 150.95 Z"/>
    <path style="stroke: rgba(0, 0, 0, 0); fill: rgb(255, 247, 247);" d="M 250.886 115.936 L 372.408 113.541 L 371.129 152.707 C 371.129 152.707 248.169 216.585 248.483 216.585 C 248.797 216.585 361.399 214.521 361.399 214.521 L 356.011 332.947 L 253.522 377.801 L 253.072 334.19 L 319.354 312.21 L 319.782 257.203 C 319.782 257.203 249.54 257.56 249.38 257.56 C 249.22 257.56 249.166 117.757 250.886 115.936 Z"/>
  </g>
</svg>