<?xml version="1.0" encoding="utf-8"?>
<svg viewBox="0 0 500 500" xmlns="http://www.w3.org/2000/svg">
  <path style="stroke: rgba(0, 0, 0, 0); fill: rgb(194, 114, 10);" d="M 91.537 70.521 L 405.435 70.922 L 391.887 385.532 L 246.649 451.73 L 104.315 383.032 L 91.537 70.521 Z"/>
  <path style="stroke: rgba(0, 0, 0, 0); fill: rgb(228, 211, 26);" d="M 250.1 88.372 L 386.776 87.562 L 374.824 373.399 L 253.484 423.966 L 250.1 88.372 Z"/>
  <g>
    <g>
      <path style="stroke: rgba(0, 0, 0, 0); fill: rgb(228, 211, 26);" d="M 117.757 111.187 L 230.458 115.153 L 235.581 387.846 L 133.731 345.757 L 130.51 288.215 L 157.255 291.314 L 158.363 326.7 L 204.187 345.373 L 198.599 150.252 C 198.599 150.252 120.072 147.405 120.229 147.405 C 120.386 147.405 117.524 111.052 117.757 111.187 Z"/>
      <path style="stroke: rgba(0, 0, 0, 0); fill: rgb(194, 114, 10);" d="M 297.775 303.924 L 272.064 313.462 L 272.322 380.085 L 359.494 348.477 L 363.282 280.711 L 366.145 214.819 L 299.036 230.542 C 298.628 232.559 299.68 144.571 299.522 144.404 C 299.364 144.237 343.59 143.732 343.59 143.732 L 342.601 176.525 C 348.145 180.624 368.892 174.139 368.779 173.506 C 368.666 172.873 373.369 110.73 373.209 110.73 C 373.049 110.73 270.407 112.631 270.087 112.788 C 269.767 112.945 266.671 269.17 272.402 268.976 C 278.133 268.782 337.882 252.942 337.882 252.942 L 335.639 316.149 C 335.639 316.149 335.385 331.888 334.906 331.888 C 334.427 331.888 298.611 344.741 298.611 344.741 C 297.417 343.946 298.525 304.712 297.775 303.924 Z"/>
    </g>
  </g>
</svg>