<?xml version="1.0" encoding="utf-8"?>
<svg viewBox="0 0 500 500" xmlns="http://www.w3.org/2000/svg" xmlns:bx="https://boxy-svg.com">
  <g>
    <g transform="matrix(1, 0, 0, 1, 15.912145, 7.885641)">
      <rect x="52.487" y="33.837" width="366.218" height="351.83" style="fill: rgb(54, 11, 11);" rx="12.775" ry="12.775"/>
      <rect x="74.403" y="55.297" width="326.687" height="312.435" style="fill: rgb(248, 243, 243);" rx="10.093" ry="10.093"/>
      <rect x="72.979" y="125.203" width="329.767" height="9.527" style="fill: rgb(54, 11, 11);"/>
      <rect x="72.986" y="161.905" width="329.767" height="9.527" style="fill: rgb(54, 11, 11);"/>
      <rect x="72.769" y="195.986" width="329.767" height="9.527" style="fill: rgb(54, 11, 11);"/>
      <rect x="61.564" y="230.099" width="345.5" height="9.982" style="fill: rgb(54, 11, 11);"/>
    </g>
    <g>
      <path d="M 442.477 326.051 m -105.361 0 a 105.361 105.361 0 1 0 210.722 0 a 105.361 105.361 0 1 0 -210.722 0 Z M 442.477 326.051 m -82.506 0 a 82.506 82.506 0 0 1 165.012 0 a 82.506 82.506 0 0 1 -165.012 0 Z" style="fill: rgb(54, 11, 11);" transform="matrix(-0.969737, 0.244151, -0.244151, -0.969737, 792.393399, 420.666906)" bx:shape="ring 442.477 326.051 82.506 82.506 105.361 105.361 1@f9e20ea7"/>
      <rect x="188.408" y="239.926" width="186.849" height="5.398" style="fill: rgb(54, 11, 11);"/>
      <ellipse style="fill: rgb(54, 11, 11);" cx="363.697" cy="298.659" rx="28.069" ry="28.044"/>
      <path style="fill: rgb(55, 11, 11); stroke: rgba(0, 0, 0, 0);" d="M 356.925 306.949 L 372.313 290.32 L 466.145 352.267 L 484.051 388.764 L 462.236 415.993 L 427.305 401.706 L 356.925 306.949 Z"/>
      <path style="stroke: rgba(0, 0, 0, 0); fill: rgba(54, 11, 11, 0.99);" d="M 362.656 245.796 L 206.701 247.784 C 207.827 251.083 205.674 254.471 207.009 257.77 C 208.009 258.231 391.549 264.607 362.656 245.796 Z"/>
      <path style="stroke: rgb(0, 0, 0); fill: rgba(54, 11, 11, 0.99);" d="M 308.017 250.818 L 312.92 253.294"/>
      <path style="fill: rgba(54, 11, 11, 0.99); stroke: rgba(0, 0, 0, 0);" d="M 188.791 212.295 L 190.287 225.484 C 249.933 225.015 309.578 224.431 369.225 223.73 C 373.389 223.681 362.693 209.955 371.221 211.395 C 408.74 217.727 333.54 202.166 188.791 212.295 Z"/>
      <path style="fill: rgba(54, 11, 11, 0.99); stroke: rgba(0, 0, 0, 0);" d="M 207.779 174.681 L 203.571 186.67 L 364.694 187.374 L 361.897 175.717"/>
      <path style="fill: rgba(54, 11, 11, 0.99); stroke: rgba(0, 0, 0, 0);" d="M 239.917 142.063 L 230.035 150.242 L 339.928 150.987 L 327.339 141.657 L 239.917 142.063 Z"/>
    </g>
  </g>
</svg>